<svg width="16" height="16" viewBox="0 0 16 16" fill="none" xmlns="http://www.w3.org/2000/svg">
<path fill-rule="evenodd" clip-rule="evenodd" d="M0 6.98413C0 3.1269 3.1269 0 6.98413 0C10.8413 0 13.9683 3.12689 13.9683 6.98413C13.9683 8.59232 13.4247 10.0736 12.5113 11.2542L15.7397 14.4826C16.0868 14.8297 16.0868 15.3925 15.7397 15.7397C15.3925 16.0868 14.8297 16.0868 14.4826 15.7397L11.2542 12.5113C10.0736 13.4247 8.59232 13.9683 6.98413 13.9683C3.12689 13.9683 0 10.8413 0 6.98413ZM6.98413 1.77778C4.10874 1.77778 1.77778 4.10874 1.77778 6.98413C1.77778 9.85949 4.10874 12.1905 6.98413 12.1905C9.85949 12.1905 12.1905 9.85949 12.1905 6.98413C12.1905 4.10874 9.85949 1.77778 6.98413 1.77778Z" fill="#B0BDCF"/>
</svg>
