<svg width="230" height="42" viewBox="0 0 230 42" fill="none" xmlns="http://www.w3.org/2000/svg">
<path d="M18.7388 20.618C18.7385 21.5564 19.0289 22.4739 19.5733 23.2541C20.1175 24.0345 20.8913 24.6428 21.7967 25.0019C22.7021 25.3612 23.6985 25.4552 24.6597 25.2722C25.6209 25.0892 26.5038 24.6375 27.197 23.9738C27.8899 23.3103 28.3618 22.465 28.5529 21.5446C28.7442 20.6243 28.6458 19.6703 28.2707 18.8035C27.8954 17.9366 27.2602 17.1956 26.4451 16.6744C25.6302 16.1534 24.672 15.8753 23.6919 15.8755C22.3784 15.8755 21.1184 16.3752 20.1895 17.2646C19.2606 18.154 18.7388 19.3603 18.7388 20.618Z" fill="#70B5FF"/>
<path d="M27.7859 39.2186C27.7856 39.0321 27.8432 38.8498 27.9511 38.6948C28.0591 38.5397 28.2127 38.4186 28.3923 38.3471C28.5721 38.2756 28.7701 38.2567 28.961 38.293C29.152 38.3292 29.3275 38.4188 29.4652 38.5505C29.603 38.6821 29.6968 38.85 29.7349 39.0328C29.7731 39.2157 29.7536 39.405 29.6791 39.5773C29.6047 39.7496 29.4786 39.8968 29.3167 40.0004C29.1549 40.1039 28.9647 40.1592 28.7699 40.1592C28.5092 40.1592 28.2592 40.0602 28.0746 39.8838C27.8902 39.7074 27.7864 39.4681 27.7859 39.2186ZM43.1391 15.7867C42.9556 15.8187 42.7806 15.8849 42.6239 15.9818C42.4673 16.0786 42.3321 16.2039 42.2261 16.3508C42.1203 16.4977 42.0456 16.6632 42.0064 16.8377C41.9674 17.0122 41.9645 17.1924 41.9983 17.3681C42.78 21.4056 42.0856 25.5777 40.0319 29.1826C37.9782 32.7876 34.6906 35.6053 30.722 37.162C30.2461 36.749 29.6407 36.4988 29.0005 36.4505C28.3603 36.4022 27.7214 36.5585 27.184 36.895C26.6465 37.2316 26.2408 37.7293 26.0302 38.3102C25.8198 38.8911 25.8165 39.5225 26.0208 40.1053C26.2253 40.6883 26.6258 41.1898 27.1597 41.5315C27.6936 41.8731 28.3307 42.0357 28.9713 41.9935C29.6121 41.9514 30.2201 41.7071 30.7002 41.2986C31.1803 40.8903 31.5054 40.3411 31.6246 39.7369C36.2417 37.9714 40.0767 34.7284 42.4771 30.56C44.8774 26.3914 45.6944 21.5552 44.7892 16.8748C44.7286 16.5628 44.556 16.281 44.3013 16.078C44.0466 15.8749 43.7259 15.7635 43.3944 15.7631C43.3087 15.7634 43.2233 15.7713 43.1391 15.7867ZM2.87342 17.1221C2.87371 16.936 2.93159 16.7543 3.03972 16.5998C3.14784 16.4452 3.30139 16.325 3.48095 16.2539C3.6605 16.183 3.85801 16.1645 4.0485 16.201C4.239 16.2374 4.41393 16.3271 4.55119 16.4587C4.68845 16.5903 4.78189 16.758 4.81968 16.9405C4.85746 17.1229 4.83793 17.312 4.76352 17.4837C4.68912 17.6556 4.56318 17.8025 4.40164 17.9058C4.2401 18.0091 4.0502 18.0642 3.85594 18.0642C3.72678 18.0642 3.59891 18.0398 3.47961 17.9924C3.36032 17.9451 3.25193 17.8757 3.16068 17.7882C3.06943 17.7007 2.99708 17.5967 2.9478 17.4825C2.89851 17.3682 2.87324 17.2458 2.87342 17.1221ZM0.947575 17.1221C0.946763 17.5616 1.05486 17.9951 1.263 18.387C1.47114 18.7788 1.77337 19.1177 2.14488 19.3759C2.1173 19.7927 2.10134 20.2096 2.10134 20.614C2.10386 25.1602 3.67571 29.5781 6.57235 33.1802C9.46895 36.7824 13.5279 39.367 18.1175 40.5317C18.2364 40.5618 18.359 40.5772 18.4819 40.5775C18.827 40.5778 19.1604 40.4577 19.4197 40.2397C19.6789 40.0216 19.8464 39.7206 19.8908 39.393C19.935 39.0653 19.8531 38.7334 19.6604 38.4593C19.4675 38.1852 19.1771 37.9878 18.8433 37.904C14.858 36.8928 11.3338 34.6485 8.81919 31.5204C6.3046 28.3922 4.94078 24.5559 4.94004 20.6084C4.94004 20.3056 4.95309 19.9998 4.97051 19.6941C5.45465 19.5002 5.87479 19.1842 6.18625 18.7798C6.4977 18.3753 6.68881 17.8976 6.73923 17.3974C6.78966 16.8973 6.69751 16.3934 6.4726 15.9395C6.24768 15.4855 5.89841 15.0982 5.46197 14.8192C5.02552 14.5403 4.51823 14.3796 3.99407 14.3548C3.46991 14.3298 2.94851 14.4414 2.48534 14.6777C2.02217 14.914 1.63456 15.2661 1.36378 15.6965C1.093 16.1269 0.949156 16.6196 0.947575 17.1221ZM38.019 8.21373C38.019 8.0274 38.0767 7.84526 38.1847 7.69032C38.2929 7.53539 38.4466 7.41465 38.6264 7.34334C38.8062 7.27203 39.004 7.25337 39.1948 7.28972C39.3858 7.32608 39.5611 7.4158 39.6987 7.54755C39.8363 7.67932 39.93 7.84719 39.968 8.02994C40.006 8.21269 39.9864 8.40212 39.912 8.57426C39.8375 8.74641 39.7113 8.89355 39.5495 8.99707C39.3878 9.10058 39.1976 9.15584 39.0028 9.15584C38.7421 9.15547 38.492 9.0561 38.3075 8.8795C38.1231 8.7029 38.0193 8.46348 38.019 8.21373ZM7.16195 7.33833C7.04188 7.47518 6.95111 7.63334 6.89491 7.80377C6.83868 7.97421 6.81806 8.15357 6.83422 8.33164C6.86689 8.69125 7.04739 9.02371 7.3361 9.25589C7.6248 9.48806 7.99789 9.60092 8.3736 9.56965C8.74915 9.53839 9.09629 9.36554 9.33888 9.08914C10.9584 7.24423 12.9512 5.73211 15.197 4.64379C17.443 3.55549 19.8956 2.91347 22.4073 2.75639C24.9192 2.59931 27.4382 2.93042 29.8128 3.72979C32.1875 4.52915 34.3687 5.78026 36.2251 7.4078C36.0491 7.96712 36.0617 8.56532 36.261 9.11741C36.4603 9.66952 36.8362 10.1474 37.3354 10.4833C37.8345 10.8192 38.4317 10.9959 39.0417 10.9884C39.6517 10.9809 40.2438 10.7895 40.7337 10.4415C41.2237 10.0934 41.5866 9.60635 41.7711 9.04952C41.9555 8.49269 41.9519 7.89438 41.7609 7.33959C41.57 6.7848 41.2012 6.30174 40.7072 5.95902C40.2132 5.61631 39.6188 5.43138 39.0088 5.43049C38.7607 5.43085 38.5139 5.46214 38.2743 5.52358C36.1416 3.62072 33.627 2.15315 30.8832 1.21013C28.1395 0.267103 25.224 -0.131658 22.3142 0.0380966C19.4044 0.207851 16.5612 0.942574 13.9572 2.19757C11.3534 3.45258 9.04337 5.20162 7.16775 7.33833" fill="#70B5FF"/>
<path d="M32.442 27.1378C32.4417 27.019 32.4782 26.9028 32.547 26.8038C32.6159 26.7049 32.7137 26.6277 32.8283 26.5821C32.943 26.5365 33.0691 26.5244 33.1909 26.5476C33.3126 26.5708 33.4245 26.628 33.5123 26.712C33.6 26.796 33.6597 26.9031 33.684 27.0197C33.708 27.1363 33.6956 27.2571 33.6478 27.3668C33.6003 27.4766 33.5197 27.5703 33.4163 27.6361C33.313 27.7021 33.1915 27.737 33.0675 27.7368C32.9015 27.7368 32.7424 27.6736 32.6251 27.5613C32.5078 27.449 32.442 27.2967 32.442 27.1378ZM27.9852 10.2925C27.8818 10.4948 27.8666 10.7281 27.9428 10.9412C28.019 11.1543 28.1803 11.3298 28.3915 11.4291C29.6719 12.0284 30.814 12.867 31.7509 13.8953C32.6876 14.9236 33.4002 16.1211 33.8465 17.417C34.2927 18.7129 34.4636 20.0812 34.3494 21.4414C34.235 22.8016 33.8377 24.1261 33.1806 25.337C33.1415 25.337 33.1052 25.3259 33.0659 25.3259C32.6436 25.3216 32.2315 25.4514 31.8942 25.695C31.5569 25.9386 31.3133 26.2823 31.2015 26.6723C31.0895 27.0624 31.1158 27.477 31.2759 27.8514C31.4361 28.2257 31.7212 28.5388 32.0867 28.7417C32.4521 28.9445 32.8776 29.0259 33.2965 28.9728C33.7153 28.9199 34.104 28.7355 34.402 28.4488C34.7 28.162 34.8904 27.7888 34.9436 27.3876C34.9967 26.9862 34.9095 26.5794 34.6958 26.2305C35.4816 24.8166 35.9621 23.2658 36.1087 21.6705C36.2553 20.0751 36.0649 18.4678 35.5488 16.9444C35.0329 15.4209 34.2019 14.0126 33.1054 12.8031C32.0089 11.5937 30.6693 10.608 29.1665 9.90477C29.0451 9.8469 28.9115 9.81693 28.776 9.81723C28.6101 9.81729 28.4476 9.86183 28.3068 9.94582C28.166 10.0298 28.0524 10.1499 27.9794 10.2925" fill="black"/>
<path d="M12.9016 25.9776C12.9016 25.8589 12.9385 25.7427 13.0073 25.644C13.0764 25.5453 13.1742 25.4682 13.2889 25.423C13.4036 25.3776 13.5298 25.3658 13.6515 25.389C13.7731 25.4123 13.8848 25.4696 13.9723 25.5536C14.0601 25.6378 14.1197 25.7448 14.1436 25.8614C14.1677 25.9779 14.155 26.0987 14.1073 26.2084C14.0596 26.3179 13.9792 26.4116 13.8758 26.4774C13.7725 26.5432 13.6512 26.5782 13.527 26.578C13.4448 26.578 13.3633 26.5624 13.2873 26.5321C13.2114 26.502 13.1423 26.4577 13.0843 26.4021C13.0262 26.3462 12.9801 26.28 12.9488 26.2073C12.9174 26.1344 12.9013 26.0564 12.9016 25.9776ZM11.636 25.9776C11.636 26.4568 11.8348 26.9162 12.1887 27.2549C12.5425 27.5937 13.0224 27.784 13.5227 27.784C13.5779 27.784 13.6301 27.7729 13.6838 27.7688C15.1534 29.6551 17.1724 31.0837 19.4873 31.8748C21.8021 32.6659 24.3095 32.7843 26.6945 32.2152C27.4294 32.0385 28.1463 31.799 28.8367 31.4997C28.9473 31.4569 29.0479 31.3933 29.1323 31.3125C29.2167 31.2317 29.2833 31.1354 29.3279 31.0294C29.3724 30.9234 29.3943 30.8099 29.392 30.6957C29.3897 30.5813 29.3633 30.4687 29.3144 30.3644C29.2656 30.2602 29.1952 30.1664 29.1075 30.0888C29.0199 30.0112 28.9168 29.9514 28.8045 29.9128C28.6921 29.8742 28.5727 29.8578 28.4536 29.8645C28.3344 29.8713 28.2179 29.9009 28.1109 29.9517C25.9064 30.9139 23.4257 31.1293 21.0764 30.5624C18.7272 29.9954 16.6493 28.6799 15.1844 26.8322C15.338 26.5692 15.4193 26.2734 15.4211 25.9721C15.4211 25.4917 15.2217 25.031 14.8669 24.6913C14.5122 24.3516 14.0309 24.1608 13.5292 24.1608C13.0275 24.1608 12.5464 24.3516 12.1916 24.6913C11.8369 25.031 11.6375 25.4917 11.6375 25.9721" fill="black"/>
<path d="M22.3453 9.55597C22.345 9.43718 22.3816 9.32099 22.4503 9.22208C22.519 9.12319 22.6169 9.04604 22.7315 9.00039C22.8459 8.95474 22.972 8.94265 23.0937 8.96565C23.2155 8.98866 23.3273 9.04572 23.4152 9.12962C23.5029 9.21352 23.5628 9.32048 23.5871 9.43696C23.6115 9.55343 23.5992 9.6742 23.5518 9.78396C23.5043 9.89374 23.4239 9.98757 23.3208 10.0536C23.2177 10.1196 23.0964 10.1548 22.9723 10.1548C22.8901 10.155 22.8086 10.1397 22.7325 10.1097C22.6565 10.0797 22.5873 10.0356 22.529 9.97993C22.4709 9.9243 22.4246 9.85823 22.3932 9.78546C22.3616 9.71271 22.3453 9.63473 22.3453 9.55597ZM21.2033 8.92511C21.0262 8.95985 20.8492 8.99736 20.6736 9.03767C18.0023 9.67551 15.6264 11.141 13.9155 13.2061C12.2046 15.2713 11.2549 17.8199 11.2141 20.4555C11.2109 20.6802 11.3008 20.8967 11.464 21.0582C11.6271 21.2195 11.8503 21.3127 12.0849 21.317H12.0965C12.3289 21.317 12.5521 21.2297 12.718 21.0738C12.8837 20.9178 12.979 20.7058 12.9832 20.4833C13.0186 18.2226 13.8335 16.0365 15.3013 14.2655C16.7692 12.4945 18.8074 11.2378 21.0987 10.6912C21.2105 10.6634 21.3236 10.6412 21.4369 10.6176C21.6831 10.9441 22.036 11.1825 22.4399 11.2949C22.8438 11.4073 23.2752 11.3873 23.6659 11.2381C24.0565 11.0888 24.3839 10.8189 24.5959 10.4711C24.8081 10.1234 24.8926 9.71777 24.8363 9.31871C24.7801 8.91964 24.5862 8.55001 24.2855 8.26853C23.9846 7.98706 23.5942 7.80987 23.1763 7.76513C22.7583 7.72038 22.3368 7.81064 21.9785 8.02156C21.6202 8.23248 21.3458 8.55196 21.1989 8.92928" fill="black"/>
<path d="M62.2251 27.3H60.6966V12.9702H55.6727V11.55H67.2491V12.9728H62.2251V27.3Z" fill="#007BFF"/>
<path d="M76.2663 19.9204C76.2663 18.9648 76.0428 18.2518 75.5958 17.7814C75.1504 17.312 74.4996 17.0758 73.6485 17.0758C73.0887 17.0711 72.5336 17.191 72.0154 17.4286C71.539 17.6456 71.1052 17.9656 70.7386 18.3703L69.9444 17.3259C70.4037 16.831 70.9486 16.4472 71.5453 16.198C72.2635 15.8891 73.0278 15.7372 73.7969 15.7508C74.3002 15.747 74.801 15.8302 75.2815 15.9981C75.7258 16.1524 76.1386 16.4034 76.4964 16.737C76.8513 17.0758 77.1309 17.5027 77.313 17.9842C77.5189 18.5429 77.6192 19.1436 77.6074 19.7481V24.5482C77.6074 24.9703 77.6198 25.4094 77.647 25.8649C77.6689 26.2507 77.711 26.6348 77.7732 27.015H76.4964C76.4544 26.7511 76.4197 26.4594 76.3925 26.1455C76.3639 25.841 76.3499 25.5349 76.3504 25.2287H76.3084C75.9308 25.8951 75.4078 26.4419 74.7891 26.8177C74.1525 27.1552 73.4541 27.3198 72.7503 27.2981C72.3576 27.2959 71.9667 27.2371 71.5873 27.1233C71.1957 27.0081 70.8265 26.8121 70.4986 26.5454C70.1634 26.2709 69.8849 25.9184 69.6821 25.5121C69.454 25.0367 69.3421 24.5018 69.358 23.962C69.3222 23.2351 69.5266 22.5191 69.932 21.9509C70.3476 21.433 70.879 21.0495 71.471 20.8399C72.1881 20.5862 72.9302 20.4325 73.6806 20.3814C74.5054 20.3129 75.3673 20.2779 76.2663 20.2759V19.9204ZM75.8481 21.5205C75.2617 21.5205 74.6704 21.5454 74.079 21.6009C73.5322 21.6459 72.9914 21.7566 72.4657 21.9315C72.0289 22.0683 71.6247 22.3134 71.283 22.6481C71.1304 22.8058 71.0102 22.9987 70.9307 23.2135C70.8513 23.4283 70.8144 23.66 70.8228 23.8926C70.813 24.2357 70.8811 24.5759 71.0207 24.8815C71.1495 25.1419 71.333 25.3631 71.5552 25.526C71.7819 25.6922 72.0333 25.8119 72.2975 25.8787C72.5686 25.9487 72.8458 25.9839 73.1239 25.9842C73.5837 25.9942 74.0401 25.8937 74.4625 25.6897C74.8402 25.5082 75.178 25.2362 75.4523 24.8926C75.7194 24.5524 75.9253 24.1571 76.0585 23.7286C76.2004 23.2831 76.2716 22.813 76.2688 22.3398V21.5066L75.8481 21.5205Z" fill="#007BFF"/>
<path d="M81.0032 17.3402C80.9865 16.8569 80.9641 16.4244 80.9304 16.0405H82.4726C82.5063 16.3448 82.5287 16.6804 82.5455 17.0501C82.5623 17.4198 82.5679 17.7241 82.5679 17.9659H82.6155C82.9321 17.3067 83.426 16.7517 84.0401 16.3647C84.6772 15.9535 85.4188 15.7401 86.1738 15.7504C86.3612 15.7495 86.5484 15.758 86.7347 15.7759C86.9073 15.7916 87.0782 15.8228 87.2449 15.87L87.0319 17.4113C86.8767 17.3664 86.7182 17.334 86.5579 17.3146C86.338 17.2831 86.1158 17.2669 85.8934 17.2663C85.4706 17.2649 85.0515 17.347 84.6598 17.5082C84.2598 17.6707 83.9056 17.9304 83.6277 18.2646C83.3097 18.6564 83.068 19.1063 82.9156 19.5899C82.7178 20.2153 82.6231 20.8698 82.6351 21.5267V27.3H81.02V18.5149C81.0256 18.2134 81.0172 17.821 81.0032 17.3402Z" fill="#007BFF"/>
<path d="M89.5689 29.148C90.0144 29.7474 90.5762 30.2329 91.2146 30.5703C91.8359 30.9077 92.5141 31.1036 93.2078 31.1457C93.9015 31.1879 94.596 31.0758 95.248 30.8158C95.7151 30.618 96.1318 30.3023 96.4637 29.895C96.777 29.4978 97.0085 29.0326 97.1429 28.5305C97.2888 27.9887 97.3617 27.4271 97.3589 26.8628V24.8089H97.3157C96.9208 25.5002 96.3478 26.0511 95.6678 26.394C94.9959 26.7554 94.256 26.944 93.5061 26.9454C92.7738 26.9575 92.0465 26.8154 91.3645 26.5265C90.7526 26.2659 90.1961 25.8729 89.7293 25.3713C89.2694 24.8703 88.91 24.2715 88.6737 23.6127C88.4216 22.9098 88.2938 22.1615 88.2974 21.4073C88.2923 20.6529 88.4201 19.9046 88.6737 19.202C88.9151 18.5354 89.2737 17.9259 89.7293 17.4075C90.1923 16.8862 90.7488 16.4736 91.3645 16.1946C92.0432 15.8908 92.7717 15.7395 93.5061 15.7506C94.2527 15.7525 94.9891 15.9412 95.6576 16.302C96.3404 16.6567 96.9157 17.215 97.3157 17.9119H97.3589V16.04H98.8213V26.8628C98.8155 27.4996 98.7395 28.1336 98.5951 28.7511C98.4427 29.4237 98.156 30.0523 97.7558 30.5924C97.3048 31.1903 96.7343 31.6693 96.0873 31.9929C95.2272 32.3984 94.2931 32.5868 93.3559 32.5441C92.4394 32.5485 91.5317 32.3504 90.688 31.9626C89.8688 31.5938 89.1286 31.0457 88.5136 30.3528L89.5689 29.148ZM89.8487 21.3578C89.8441 21.9136 89.93 22.4661 90.1031 22.9897C90.2677 23.4885 90.5198 23.9482 90.8458 24.3431C91.179 24.7389 91.5866 25.0529 92.0412 25.2639C92.5507 25.4977 93.1 25.6134 93.6535 25.603C94.1828 25.6085 94.7083 25.5055 95.2023 25.2997C95.6625 25.1075 96.0807 24.8136 96.4306 24.4368C96.7803 24.0528 97.0545 23.5962 97.2369 23.0943C97.4356 22.541 97.5342 21.9513 97.5269 21.3578C97.5337 20.5298 97.3172 19.7181 96.9043 19.0218C96.4914 18.3253 95.8998 17.775 95.2023 17.4378C94.7152 17.2021 94.1869 17.0825 93.6535 17.0878C93.099 17.0781 92.5491 17.1974 92.0412 17.4378C91.5873 17.6565 91.1805 17.9747 90.8458 18.3724C90.5193 18.7668 90.2672 19.2265 90.1031 19.7258C89.93 20.2492 89.8441 20.8017 89.8487 21.3578Z" fill="#007BFF"/>
<path d="M112.502 21.1967V21.549C112.502 21.674 112.502 21.8071 112.481 21.9484H103.604C103.615 22.4803 103.723 23.0056 103.923 23.4964C104.113 23.9709 104.393 24.4019 104.748 24.7642C105.102 25.1284 105.522 25.4194 105.983 25.6215C106.466 25.8346 106.988 25.9425 107.514 25.9377C108.251 25.9571 108.979 25.7579 109.609 25.3634C110.147 25.0303 110.604 24.5768 110.948 24.0375L112.113 24.9751C111.557 25.7343 110.832 26.346 109.999 26.7587C109.218 27.1215 108.37 27.3061 107.514 27.2998C106.757 27.3067 106.007 27.1598 105.307 26.8668C104.65 26.591 104.054 26.1792 103.558 25.6575C103.061 25.129 102.669 24.5073 102.401 23.8265C102.114 23.0959 101.971 22.3143 101.979 21.5268C101.972 20.7394 102.111 19.958 102.39 19.2244C102.652 18.5439 103.041 17.9222 103.534 17.3934C104.033 16.8676 104.632 16.451 105.292 16.1688C105.953 15.8867 106.663 15.7445 107.379 15.7511C108.139 15.7353 108.895 15.8836 109.596 16.1869C110.207 16.4535 110.754 16.854 111.199 17.3601C111.632 17.8626 111.963 18.4494 112.17 19.0858C112.395 19.7654 112.508 20.4789 112.502 21.1967ZM110.923 20.6809C110.909 19.7324 110.565 18.8203 109.953 18.1093C109.349 17.4305 108.491 17.0902 107.379 17.0882C106.884 17.0841 106.393 17.1844 105.937 17.3823C105.072 17.762 104.372 18.4525 103.969 19.3242C103.773 19.7485 103.656 20.2067 103.625 20.6754L110.923 20.6809Z" fill="#007BFF"/>
<path d="M119.869 17.9064H117.065V24.055C117.058 24.3816 117.093 24.7077 117.171 25.0239C117.224 25.2473 117.33 25.4523 117.479 25.6202C117.611 25.7614 117.775 25.8627 117.956 25.913C118.15 25.9678 118.351 25.9946 118.551 25.9928C118.763 25.9901 118.974 25.9595 119.179 25.9023C119.395 25.8422 119.604 25.7593 119.804 25.6547L119.869 26.9859C119.611 27.0906 119.343 27.1702 119.071 27.2226C118.773 27.2755 118.472 27.3013 118.17 27.2999C117.883 27.2976 117.597 27.2601 117.319 27.188C117.016 27.1101 116.734 26.9638 116.49 26.7595C116.221 26.5305 116.007 26.238 115.865 25.905C115.683 25.4574 115.598 24.9731 115.614 24.4864V17.9064H113.555V16.6231H115.614V13.65H117.06V16.6231H119.864L119.869 17.9064Z" fill="#007BFF"/>
<path d="M127.895 27.2974H126.184L132.817 11.55H134.328L140.918 27.3H139.196L137.505 23.1641H129.563L127.895 27.2974ZM130.15 21.6916H136.913L133.531 13.3275L130.15 21.6916Z" fill="black"/>
<path d="M152.03 25.3089C151.616 25.9521 151.035 26.4666 150.353 26.7955C149.69 27.1253 148.963 27.2976 148.226 27.2994C147.492 27.31 146.765 27.1685 146.087 26.8833C145.471 26.6224 144.915 26.2352 144.453 25.7457C143.994 25.2536 143.635 24.6734 143.398 24.0395C142.897 22.6712 142.897 21.165 143.398 19.797C143.635 19.1628 143.994 18.5829 144.453 18.0906C144.915 17.6013 145.471 17.2141 146.087 16.9529C146.765 16.6678 147.492 16.5262 148.226 16.5368C148.965 16.5394 149.693 16.7163 150.353 17.0539C151.038 17.3947 151.618 17.9206 152.03 18.5741H152.085V10.5H153.546V27.046H152.085V25.3192L152.03 25.3089ZM144.57 21.9195C144.564 22.4654 144.65 23.0083 144.824 23.525C144.983 24.0083 145.236 24.4546 145.566 24.8382C145.894 25.2164 146.301 25.5155 146.757 25.7147C147.27 25.9327 147.821 26.0402 148.376 26.0301C149.151 26.0399 149.91 25.8072 150.55 25.3631C151.191 24.9191 151.681 24.2854 151.956 23.5482C152.342 22.4971 152.342 21.3394 151.956 20.288C151.772 19.8024 151.498 19.3573 151.148 18.9773C150.802 18.6036 150.386 18.3055 149.923 18.1009C149.435 17.8857 148.908 17.7772 148.376 17.7829C147.821 17.7739 147.271 17.8857 146.762 18.1112C146.307 18.3168 145.901 18.6191 145.571 18.998C145.241 19.3816 144.988 19.828 144.829 20.3113C144.654 20.8287 144.566 21.3724 144.57 21.9195Z" fill="black"/>
<path d="M162.657 18.6189C162.414 18.1554 162.047 17.7706 161.596 17.5089C161.107 17.2153 160.546 17.0643 159.976 17.0734C159.698 17.0754 159.421 17.107 159.15 17.1677C158.885 17.2242 158.632 17.3276 158.403 17.4729C158.187 17.6142 158.007 17.8041 157.877 18.0279C157.741 18.2624 157.672 18.5304 157.679 18.8018C157.67 19.038 157.724 19.2722 157.835 19.4804C157.945 19.6889 158.109 19.8635 158.31 19.9866C158.925 20.3326 159.595 20.5671 160.29 20.6802C161.576 20.9466 162.528 21.3341 163.147 21.8428C163.448 22.0898 163.688 22.4039 163.847 22.7601C164.007 23.1166 164.082 23.5053 164.067 23.8959C164.091 24.4117 163.983 24.9249 163.754 25.387C163.526 25.8494 163.184 26.2449 162.762 26.5371C162.364 26.8154 161.917 27.015 161.445 27.1254C160.96 27.2412 160.463 27.2997 159.965 27.3C159.138 27.2994 158.319 27.1237 157.563 26.7841C156.785 26.4387 156.122 25.8765 155.651 25.1638L156.91 24.226C157.228 24.7483 157.673 25.1799 158.204 25.4796C158.734 25.7792 159.332 25.937 159.94 25.9378C160.27 25.9394 160.598 25.9078 160.921 25.8435C161.215 25.7906 161.496 25.6791 161.748 25.5161C161.975 25.3617 162.163 25.1566 162.299 24.9168C162.447 24.6396 162.52 24.3272 162.508 24.0123C162.514 23.7373 162.438 23.467 162.291 23.2353C162.144 23.0035 161.932 22.8211 161.681 22.711C160.918 22.3487 160.116 22.0768 159.29 21.901C158.965 21.8234 158.618 21.7233 158.255 21.6069C157.891 21.4919 157.548 21.3175 157.241 21.0907C156.928 20.8612 156.666 20.5696 156.469 20.2336C156.256 19.8386 156.152 19.3928 156.169 18.9435C156.154 18.4417 156.266 17.9444 156.494 17.4978C156.707 17.1067 157.005 16.7696 157.367 16.5129C157.746 16.249 158.169 16.0547 158.615 15.9388C159.087 15.8127 159.574 15.7492 160.062 15.75C160.825 15.7525 161.579 15.9291 162.266 16.2662C162.939 16.5719 163.501 17.0809 163.874 17.7226L162.657 18.6189Z" fill="black"/>
<path d="M169.556 29.486L178.011 10.742L176.602 10.06L168.125 28.826L169.556 29.486Z" fill="#007BFF"/>
<path d="M182.668 27H187.401C192.399 27 195.459 23.81 195.459 19.212C195.459 14.592 192.289 11.38 187.335 11.38H182.668V27ZM184.583 25.262V13.118H187.357C191.012 13.118 193.478 15.648 193.478 19.212C193.478 22.732 191.1 25.262 187.291 25.262H184.583Z" fill="#007BFF"/>
<path d="M203.244 27.132C206.414 27.132 208.77 24.91 208.77 21.654C208.77 18.398 206.414 16.154 203.244 16.154C199.919 16.154 197.696 18.574 197.696 21.654C197.696 24.734 199.919 27.132 203.244 27.132ZM203.244 25.504C201.02 25.504 199.523 23.788 199.523 21.654C199.523 19.52 200.998 17.782 203.244 17.782C205.313 17.782 206.943 19.366 206.943 21.654C206.943 23.942 205.291 25.504 203.244 25.504Z" fill="#007BFF"/>
<path d="M216.097 27.132C218.188 27.132 219.619 26.34 220.522 25.262L219.289 24.14C218.629 24.954 217.506 25.504 216.229 25.504C214.049 25.504 212.574 23.942 212.574 21.654C212.574 19.388 214.049 17.782 216.251 17.782C217.528 17.782 218.584 18.354 219.267 19.146L220.478 18.068C219.421 16.814 217.77 16.154 216.163 16.154C212.97 16.154 210.747 18.42 210.747 21.654C210.747 24.91 212.97 27.132 216.097 27.132Z" fill="#007BFF"/>
<path d="M226.147 27.132C228.723 27.132 230 25.746 230 24.074C230.022 21.984 228.525 21.588 226.257 20.708C225.09 20.29 224.231 19.872 224.231 19.036C224.231 18.222 225.046 17.738 225.883 17.738C226.807 17.738 227.798 18.024 228.723 18.882L229.647 17.474C228.459 16.506 227.248 16.154 225.949 16.154C223.923 16.154 222.426 17.386 222.426 19.036C222.426 20.994 223.901 21.698 225.64 22.314C227.204 22.886 228.194 23.15 228.194 24.096C228.194 24.91 227.446 25.548 226.147 25.548C224.65 25.548 223.703 25.064 222.866 24.25L221.964 25.614C222.998 26.516 224.363 27.132 226.147 27.132Z" fill="#007BFF"/>
<path fill-rule="evenodd" clip-rule="evenodd" d="M184.383 25.462V12.918H187.357C189.232 12.918 190.815 13.5678 191.93 14.6874C193.044 15.8067 193.678 17.3828 193.678 19.212C193.678 21.0178 193.067 22.5835 191.954 23.6983C190.841 24.8134 189.241 25.462 187.291 25.462H184.383ZM229.8 24.074V24.0719C229.805 23.5736 229.72 23.1899 229.564 22.8797C229.409 22.5699 229.178 22.3203 228.87 22.0997C228.339 21.7185 227.61 21.44 226.702 21.093C226.536 21.0297 226.364 20.9642 226.187 20.8954C225.605 20.6868 225.075 20.4701 224.689 20.1907C224.295 19.9054 224.031 19.5381 224.031 19.036C224.031 18.5539 224.275 18.1732 224.626 17.9196C224.973 17.6688 225.429 17.538 225.883 17.538C226.794 17.538 227.768 17.8044 228.682 18.579L229.38 17.5171C228.275 16.6654 227.154 16.354 225.949 16.354C223.995 16.354 222.626 17.5318 222.626 19.036C222.626 19.9542 222.967 20.5647 223.51 21.0258C224.066 21.4973 224.837 21.8173 225.707 22.1255L225.709 22.1262C225.845 22.1758 225.977 22.2235 226.106 22.2698C226.705 22.4854 227.223 22.6717 227.604 22.8915C227.839 23.0275 228.039 23.1847 228.179 23.3838C228.321 23.5866 228.394 23.8213 228.394 24.096C228.394 24.5703 228.174 24.991 227.777 25.2874C227.385 25.5811 226.827 25.748 226.147 25.748C224.697 25.748 223.733 25.3062 222.902 24.5579L222.228 25.5763C223.212 26.3863 224.49 26.932 226.147 26.932C227.4 26.932 228.312 26.5952 228.908 26.0788C229.502 25.5642 229.8 24.8566 229.8 24.074ZM221.964 25.614L222.866 24.25C222.915 24.2975 222.964 24.3439 223.014 24.3892C223.815 25.1189 224.737 25.548 226.147 25.548C227.446 25.548 228.194 24.91 228.194 24.096C228.194 23.2345 227.373 22.9386 226.045 22.4606C225.915 22.4137 225.78 22.365 225.64 22.314C223.901 21.698 222.426 20.994 222.426 19.036C222.426 17.386 223.923 16.154 225.949 16.154C227.248 16.154 228.459 16.506 229.647 17.474L228.723 18.882C228.673 18.8355 228.622 18.7907 228.572 18.7475C227.691 17.9938 226.757 17.738 225.883 17.738C225.046 17.738 224.231 18.222 224.231 19.036C224.231 19.872 225.09 20.29 226.257 20.708C226.432 20.7758 226.602 20.8408 226.767 20.9039C228.746 21.6591 230.02 22.1451 230 24.074C230 25.746 228.723 27.132 226.147 27.132C224.363 27.132 222.998 26.516 221.964 25.614ZM178.011 10.742L176.602 10.06L168.125 28.826L169.556 29.486L178.011 10.742ZM169.457 29.2199L177.748 10.8372L176.699 10.3295L168.389 28.7275L169.457 29.2199ZM182.868 26.8H187.401C189.857 26.8 191.818 26.0172 193.164 24.6879C194.51 23.3587 195.259 21.4657 195.259 19.212C195.259 16.949 194.484 15.0448 193.115 13.7065C191.746 12.3679 189.768 11.58 187.335 11.58H182.868V26.8ZM187.401 27C192.399 27 195.459 23.81 195.459 19.212C195.459 14.592 192.289 11.38 187.335 11.38H182.668V27H187.401ZM203.244 26.932C206.308 26.932 208.57 24.7952 208.57 21.654C208.57 18.5118 206.307 16.354 203.244 16.354C200.033 16.354 197.896 18.6809 197.896 21.654C197.896 24.6261 200.032 26.932 203.244 26.932ZM203.244 25.704C200.898 25.704 199.323 23.8861 199.323 21.654C199.323 19.4243 200.874 17.582 203.244 17.582C205.428 17.582 207.143 19.26 207.143 21.654C207.143 24.0503 205.404 25.704 203.244 25.704ZM220.243 25.2782C219.374 26.235 218.036 26.932 216.097 26.932C214.582 26.932 213.298 26.3947 212.392 25.4738C211.486 24.5527 210.947 23.2354 210.947 21.654C210.947 20.0838 211.486 18.761 212.4 17.8315C213.314 16.9023 214.615 16.354 216.163 16.354C217.655 16.354 219.18 16.9423 220.196 18.0508L219.282 18.8649C218.564 18.1111 217.508 17.582 216.251 17.582C215.099 17.582 214.126 18.0033 213.441 18.7312C212.757 19.4581 212.374 20.4774 212.374 21.654C212.374 22.8413 212.757 23.8556 213.439 24.5746C214.121 25.2945 215.089 25.704 216.229 25.704C217.477 25.704 218.593 25.2004 219.306 24.4259L220.243 25.2782ZM219.158 24.2913C218.486 25.0214 217.425 25.504 216.229 25.504C214.049 25.504 212.574 23.942 212.574 21.654C212.574 19.388 214.049 17.782 216.251 17.782C217.477 17.782 218.501 18.3098 219.185 19.0534C219.213 19.0839 219.24 19.1148 219.267 19.1459C219.267 19.146 219.267 19.1459 219.267 19.1459L220.478 18.068C220.478 18.068 220.478 18.068 220.478 18.068C219.421 16.8141 217.77 16.154 216.163 16.154C212.97 16.154 210.747 18.42 210.747 21.654C210.747 24.91 212.97 27.132 216.097 27.132C218.188 27.132 219.619 26.34 220.522 25.262L219.289 24.14C219.247 24.1915 219.204 24.242 219.158 24.2913ZM184.583 13.118H187.357C191.012 13.118 193.478 15.648 193.478 19.212C193.478 22.732 191.1 25.262 187.291 25.262H184.583V13.118ZM208.77 21.654C208.77 24.91 206.414 27.132 203.244 27.132C199.919 27.132 197.696 24.734 197.696 21.654C197.696 18.574 199.919 16.154 203.244 16.154C206.414 16.154 208.77 18.398 208.77 21.654ZM199.523 21.654C199.523 23.788 201.02 25.504 203.244 25.504C205.291 25.504 206.943 23.942 206.943 21.654C206.943 19.366 205.313 17.782 203.244 17.782C200.998 17.782 199.523 19.52 199.523 21.654Z" fill="#F9FAFF"/>
</svg>
