<svg width="20" height="20" viewBox="0 0 20 20" fill="none" xmlns="http://www.w3.org/2000/svg">
<path d="M14.0125 3.28125H7.78125C7.36685 3.28125 6.96942 3.44587 6.6764 3.7389C6.38337 4.03192 6.21875 4.42935 6.21875 4.84375V13.375C6.21875 13.7894 6.38337 14.1868 6.6764 14.4799C6.96942 14.7729 7.36685 14.9375 7.78125 14.9375H14.0125C14.4269 14.9375 14.8243 14.7729 15.1174 14.4799C15.4104 14.1868 15.575 13.7894 15.575 13.375V4.83125C15.5717 4.41902 15.4056 4.02479 15.113 3.73447C14.8203 3.44414 14.4247 3.28124 14.0125 3.28125ZM14.6375 13.375C14.6375 13.5408 14.5717 13.6997 14.4544 13.8169C14.3372 13.9342 14.1783 14 14.0125 14H7.78125C7.61549 14 7.45652 13.9342 7.33931 13.8169C7.2221 13.6997 7.15625 13.5408 7.15625 13.375V4.83125C7.15625 4.66549 7.2221 4.50652 7.33931 4.38931C7.45652 4.2721 7.61549 4.20625 7.78125 4.20625H14.0125C14.1783 4.20625 14.3372 4.2721 14.4544 4.38931C14.5717 4.50652 14.6375 4.66549 14.6375 4.83125V13.375Z" fill="#435875"/>
<path d="M12.2093 15.7813H5.99365C5.82789 15.7813 5.66892 15.7154 5.55171 15.5982C5.4345 15.481 5.36865 15.322 5.36865 15.1563V6.63438C5.36865 6.51006 5.31927 6.39083 5.23136 6.30292C5.14345 6.21501 5.02422 6.16563 4.8999 6.16563C4.77558 6.16563 4.65635 6.21501 4.56845 6.30292C4.48054 6.39083 4.43115 6.51006 4.43115 6.63438V15.1594C4.43115 15.5738 4.59577 15.9712 4.8888 16.2642C5.18182 16.5573 5.57925 16.7219 5.99365 16.7219H12.2093C12.334 16.7219 12.4536 16.6723 12.5418 16.5841C12.63 16.4959 12.6796 16.3763 12.6796 16.2516C12.6796 16.1268 12.63 16.0072 12.5418 15.919C12.4536 15.8308 12.334 15.7813 12.2093 15.7813Z" fill="#435875"/>
</svg>
